PathFileType	4	(X/Y/Z)	..\data\2014019\dynamic\2014019_C4_05.trc
DataRate	CameraRate	NumFrames	NumMarkers	Units	OrigDataRate	OrigDataStartFrame	OrigNumFrames
100.000000	100.000000	4	52	mm	100.000000	64	172
Frame#	Time	L_IAS			L_IPS			R_IPS			R_IAS			L_FTC			L_FLE			L_FME			L_FAX			L_TTC			L_FAL			L_TAM			L_FCC			L_FM1			L_FM2			L_FM5			R_FTC			R_FLE			R_FME			R_FAX			R_TTC			R_FAL			R_TAM			R_FCC			R_FM1			R_FM2			R_FM5			CV7			TV10			SXS			SJN			L_SIA			L_SRS			L_SAA			L_SAE			L_HLE			L_HME			L_UOA			L_RSP			L_UHE			L_HM2			L_HM5			R_SIA			R_SRS			R_SAA			R_SAE			R_HLE			R_HME			R_UOA			R_RSP			R_UHE			R_HM2			R_HM5			
		X1	Y1	Z1	X2	Y2	Z2	X3	Y3	Z3	X4	Y4	Z4	X5	Y5	Z5	X6	Y6	Z6	X7	Y7	Z7	X8	Y8	Z8	X9	Y9	Z9	X10	Y10	Z10	X11	Y11	Z11	X12	Y12	Z12	X13	Y13	Z13	X14	Y14	Z14	X15	Y15	Z15	X16	Y16	Z16	X17	Y17	Z17	X18	Y18	Z18	X19	Y19	Z19	X20	Y20	Z20	X21	Y21	Z21	X22	Y22	Z22	X23	Y23	Z23	X24	Y24	Z24	X25	Y25	Z25	X26	Y26	Z26	X27	Y27	Z27	X28	Y28	Z28	X29	Y29	Z29	X30	Y30	Z30	X31	Y31	Z31	X32	Y32	Z32	X33	Y33	Z33	X34	Y34	Z34	X35	Y35	Z35	X36	Y36	Z36	X37	Y37	Z37	X38	Y38	Z38	X39	Y39	Z39	X40	Y40	Z40	X41	Y41	Z41	X42	Y42	Z42	X43	Y43	Z43	X44	Y44	Z44	X45	Y45	Z45	X46	Y46	Z46	X47	Y47	Z47	X48	Y48	Z48	X49	Y49	Z49	X50	Y50	Z50	X51	Y51	Z51	X52	Y52	Z52	

65	0.64	-441.9635620117189	907.397888183594	100.1158370971679	-642.6383056640626	974.5635375976565	191.7333679199218	-641.9495239257814	959.3332519531252	289.3450927734375	-429.1652832031252	919.4075927734377	333.2350769042969	-546.9326782226564	863.836120605469	24.90170288085931	-638.1949462890626	457.0536499023439	73.98842620849604	-653.0806274414064	448.3617553710939	209.1062927246093	-691.7969970703126	417.221405029297	71.39271545410149	-646.8005371093751	375.1836853027344	117.3923797607421	-907.2271728515627	136.056625366211	111.3576736450194	-865.1267089843752	142.9100341796875	198.1470031738281	-961.1927490234377	123.7573776245117	158.5555572509765	-818.629821777344	32.39655685424805	219.456314086914	-791.067565917969	36.34012985229493	166.7626647949218	-827.960144042969	21.30332565307618	110.6805572509765	-518.8175048828126	835.9827880859377	429.9356079101563	-366.996063232422	455.1024169921876	355.1956481933594	-376.9066772460938	443.7480773925782	217.380859375	-370.3504638671876	395.1262207031251	357.3520202636719	-309.6096801757814	400.0416564941407	298.1911315917969	-293.8270874023439	64.39778900146486	306.0996398925781	-273.5223388671876	83.36504364013673	217.4460906982422	-329.2912597656251	16.97847175598145	248.5865631103516	-132.7991485595704	37.80843353271485	231.1986999511719	-131.0568084716797	51.03891372680665	287.4992675781251	-171.0130157470704	26.8578052520752	334.8687438964844	-600.8452148437501	1452.85205078125	229.796646118164	-665.8803710937501	1238.576293945313	226.4836120605468	-436.0732727050782	1136.787841796875	225.3834991455078	-476.8016052246095	1365.368774414063	227.3289489746094	-673.9050903320314	1276.947875976563	144.3613281249999	-631.0090942382814	1403.741088867188	114.0935440063476	-593.4836425781251	1395.484985351563	49.98839950561518	-544.4534912109376	1412.012329101563	43.10476684570307	-504.9414367675782	1074.296875	-16.55147933959967	-534.7732543945314	1063.574584960938	43.98428344726557	-519.2796020507814	1039.20556640625	17.65258598327631	-264.7183227539063	995.1025390625002	36.72655868530271	-294.6023864746094	949.1560058593752	-10.53195571899418	-181.6689910888672	963.1277465820315	44.19254684448241	-232.488510131836	885.4846801757815	8.662651062011692	-677.1505737304689	1266.766723632813	294.6108703613281	-634.5929565429689	1399.114868164063	330.4397277832031	-593.2219848632814	1397.940795898438	393.2617187500001	-554.1763916015626	1411.514404296875	401.6990051269532	-642.9682006835939	1091.83447265625	453.1938781738282	-662.0518188476564	1090.767822265625	378.6139221191406	-673.9447631835939	1075.549560546875	414.9030456542969	-610.6599121093751	836.629333496094	461.4846496582032	-672.5314941406252	858.0698242187502	491.8565063476563	-625.1325683593752	738.5223999023439	475.9334716796876	-715.0796508789065	785.2080078125002	475.8316650390625	
66	0.65	-427.712615966797	908.054382324219	102.2457733154297	-628.1162109375001	975.701599121094	191.872329711914	-627.3453979492189	961.890319824219	289.9759826660156	-414.6097106933595	922.766784667969	334.4561462402344	-531.7494506835939	862.9376220703127	26.68670654296869	-618.8444213867189	456.421600341797	73.55199432373041	-632.0209350585939	446.1263732910157	208.4935150146484	-673.4638061523439	417.6314086914064	70.77092742919915	-628.4708862304689	374.0253295898438	116.0246200561523	-897.2883300781252	143.9251403808594	109.2715454101562	-854.5505981445315	148.043685913086	195.754653930664	-951.124450683594	135.4371032714844	156.5135345458984	-817.397399902344	35.41296386718751	219.0581359863281	-790.5601806640627	36.7451400756836	166.3944549560546	-827.2701416015627	22.87127685546875	111.0433883666991	-503.4509887695314	840.3394165039065	431.9400024414063	-354.8987426757814	457.101531982422	355.7126159667969	-366.9005737304688	445.8708801269532	218.4227600097656	-359.2067871093751	396.8222045898439	358.2352905273438	-299.7477111816407	400.5602416992189	298.1923217773438	-292.1170349121095	64.26573181152345	306.1707763671875	-272.1167602539063	82.43019866943361	217.3076477050782	-329.4200134277345	17.51189994812012	248.9238586425782	-131.8362274169922	32.64013290405274	230.9426422119141	-129.3546142578126	46.4809913635254	287.2320861816407	-170.5866851806641	24.15076255798341	335.4762878417969	-587.6226806640626	1454.648315429688	231.5677185058593	-652.0784301757814	1240.171752929688	227.5679626464843	-421.8412170410157	1139.418579101563	226.4243469238281	-463.3183593750001	1367.674438476563	228.8533477783203	-660.4367675781251	1278.802490234375	145.7247772216796	-617.8128662109376	1405.797241210938	115.8563766479492	-580.4075927734376	1397.73046875	51.7770156860351	-531.3793334960939	1414.1142578125	44.68276977539057	-496.4931640625001	1075.771118164063	-14.28212261199958	-525.8890380859376	1065.855834960938	46.64537811279291	-511.2293395996095	1040.974975585938	20.15137481689447	-257.3056945800782	993.0252075195315	37.88467025756834	-288.0176086425782	947.3012695312502	-9.126991271972694	-174.7000732421875	960.3325195312502	45.01502227783202	-226.4100494384766	882.990173339844	10.19670486450193	-663.2489013671876	1268.319091796875	296.1010437011719	-621.0781250000001	1400.637817382813	332.1579284667969	-579.5488281250001	1399.4951171875	394.9082641601563	-540.5496215820314	1413.294677734375	403.2926025390626	-627.0866088867189	1093.032104492188	454.6468811035157	-646.2970581054689	1091.962158203125	380.1762390136719	-657.9987182617189	1076.730102539063	416.4109191894532	-594.1058959960939	837.8558349609377	462.5679321289063	-655.746032714844	859.3365478515627	493.4061279296876	-608.7513427734377	739.4951782226564	476.7126159667969	-698.5505371093752	786.6413574218752	477.5708923339844	
67	0.66	-413.7348632812501	908.8855590820315	104.4795455932617	-613.8538818359376	976.8819580078127	192.0209045410156	-612.9475097656251	964.559509277344	290.6040649414062	-400.2498474121095	926.254577636719	335.7289733886719	-516.5756225585939	861.995056152344	28.49920654296869	-598.5036010742189	455.5918273925782	73.0173721313476	-609.7606811523439	443.565155029297	207.7337188720703	-653.8395385742189	417.8270874023439	69.96738433837884	-609.1118774414064	372.7539978027344	114.5821533203125	-885.8784179687502	152.0832977294922	107.0429534912109	-842.7957153320315	153.3835144042969	193.2665557861328	-939.448181152344	147.6335601806641	154.2671813964843	-815.1756591796877	39.1341667175293	218.5666961669921	-789.3553466796877	37.4687728881836	165.8987884521484	-825.8876953125002	25.11297416687012	111.3556823730468	-488.4777221679689	844.7052001953127	433.8747863769532	-343.2913208007814	459.058563232422	356.3046875	-357.3986816406251	447.9622497558595	219.5388336181641	-348.5482482910157	398.502899169922	359.1967163085938	-290.4218139648439	401.0870361328126	298.2782592773438	-290.527069091797	64.31990814208986	306.3080749511719	-270.9993896484376	81.79513549804689	217.2716064453125	-329.4321594238282	18.07113075256348	249.3411102294922	-131.1670684814454	28.62569046020509	230.5940551757813	-127.879623413086	43.0462989807129	286.8580627441407	-170.1435852050782	22.34739875793457	336.0570068359376	-574.4362182617189	1456.580444335938	233.3262176513672	-638.3847045898439	1241.930786132813	228.6678161621093	-407.774627685547	1142.273315429688	227.3977203369141	-449.8878479003907	1370.14013671875	230.3123626708984	-647.0249023437501	1280.858642578125	147.0053405761718	-604.6574707031251	1408.022705078125	117.5816345214843	-567.3656005859376	1400.213745117188	53.52538681030268	-518.3504028320314	1416.448120117188	46.26253509521479	-488.2228393554689	1077.509887695313	-11.91845607757575	-517.1271362304689	1068.550415039063	49.40879821777339	-503.4044494628907	1043.082763671875	22.77351379394526	-250.3298645019532	990.4245605468752	38.83563232421873	-282.1052856445313	945.0780029296877	-7.920495510101355	-168.3071594238282	956.5469360351565	45.58021926879881	-221.338607788086	879.8577270507815	11.42216873168943	-649.3164062500001	1270.020874023438	297.5534362792969	-607.5405273437501	1402.327758789063	333.8531494140625	-565.8106689453126	1401.248291015625	396.5054016113282	-526.8782958984376	1415.274047851563	404.8197021484376	-611.1414794921876	1094.444213867188	456.1742248535157	-630.4875488281251	1093.380737304688	381.7968444824219	-642.0250244140626	1078.04736328125	418.0115356445313	-576.8940429687501	839.394714355469	463.7688293457032	-638.3781738281252	860.7370605468752	495.0166625976563	-591.3797607421877	740.7612304687501	477.6824951171876	-681.179138183594	788.0620727539065	479.3794250488282	
68	0.67	-400.0602111816407	909.859069824219	106.7485809326172	-599.8837890625001	978.074157714844	192.2348327636718	-598.7868652343751	967.2642822265627	291.2595520019531	-386.106658935547	929.745056152344	337.0353088378906	-501.4986572265626	861.048034667969	30.3230476379394	-577.2415161132814	454.6158447265626	72.41059112548822	-586.4496459960939	440.765106201172	206.8661193847656	-632.9767456054689	417.826385498047	69.01773071289057	-588.8103637695314	371.4286499023438	113.1296234130859	-872.978454589844	160.4605255126953	104.7476196289062	-829.809753417969	158.925033569336	190.7628631591796	-926.1504516601565	160.1487731933594	151.9042510986327	-811.6267089843752	43.53083419799805	217.9497375488281	-787.1123046875002	38.56333541870118	165.2368164062499	-823.495544433594	28.09040260314942	111.5715866088866	-473.9354553222658	848.9294433593752	435.7106323242188	-332.2952270507814	460.8765563964845	356.9578247070312	-348.4515075683594	449.9326171875001	220.6895294189453	-338.5154418945314	400.0770568847657	360.1983032226562	-281.6960754394532	401.5528564453126	298.4425659179688	-289.0603027343751	64.50164794921876	306.4671325683594	-270.1192321777344	81.38291168212892	217.3056182861328	-329.3199768066407	18.60226058959961	249.7919616699219	-130.7327270507813	25.70015144348145	230.1480865478516	-126.6003189086915	40.65376281738282	286.3752746582032	-169.6612701416016	21.34294319152832	336.5546569824219	-561.2903442382814	1458.593872070313	235.0654449462891	-624.8181152343751	1243.802124023438	229.8071899414062	-393.8979492187501	1145.2744140625	228.2778015136719	-436.5201110839845	1372.697143554688	231.6820068359375	-633.7051391601564	1283.054077148438	148.2332305908203	-591.5738525390626	1410.352416992188	119.2684020996093	-554.4037475585939	1402.852416992188	55.22157669067377	-505.4132690429689	1418.9345703125	47.82031249999994	-480.0803833007814	1079.4443359375	-9.487645149231017	-508.4415893554689	1071.564819335938	52.23008346557612	-495.7386779785157	1045.466674804688	25.48416519165034	-243.7572784423829	987.307556152344	39.56887435913084	-276.8077392578126	942.5078125000002	-6.928633213043248	-162.4698181152344	951.7822875976565	45.90600585937499	-217.2332000732422	876.1204223632815	12.33067131042478	-635.3710327148439	1271.818969726563	298.9822998046875	-593.9697265625001	1404.137817382813	335.5335388183594	-551.9914550781251	1403.137573242188	398.0563659667969	-513.1379394531251	1417.38037109375	406.2774047851563	-595.1655883789064	1096.010375976563	457.7847290039063	-614.6829833984376	1094.958618164063	383.4891662597656	-626.0700073242189	1079.436279296875	419.7215270996094	-559.0469360351565	841.195739746094	465.0833129882813	-620.4656372070315	862.2016601562502	496.6767578125001	-573.0091552734377	742.2896728515626	478.8529968261719	-662.973571777344	789.3863525390627	481.2315673828126	
